# xmcd
#
# Track frame offsets:
#	150
#	16517
#	30925
#	48152
#	61442
#	84095
#	103170
#	119772
#	135010
#	153200
#	170187
#	186180
#	199747
#	212740
#	228457
#
# Disc length: 3261
#
# Revision: 2
# Processed by: cddbd v1.5.2PL0 Copyright (c) Steve Scherf et al.
# Submitted via: kJams Pro (development) 1.0patch47.41
#
DISCID=ba0cbb0f
DTITLE=Various Artist - MM 6065
DYEAR=1990
DGENRE=Country
TTITLE0=Lorrie Morgan - Till A Tear Becomes A Rose
TTITLE1=Doug Stone - Fourteen Minutes Old
TTITLE2=K.T. Oslin - Come Next Monday
TTITLE3=Lee Greenwood - Holding A Good Hand
TTITLE4=Robin Lee - Black Velvet
TTITLE5=Keith Whitley - It Ain't Nothing
TTITLE6=Lorrie Morgan - He Talks To Me
TTITLE7=Alabama - Jukebox In My Mind
TTITLE8=Reba McEntire - Rumor Has It
TTITLE9=Doug Stone - These Lips Don't Know How To Say Goodbye
TTITLE10=Patty Loveless - On Down The Line
TTITLE11=George Strait - If I Know Me
TTITLE12=The Judds - Rockin' With The Rhythm Of The Rain
TTITLE13=Garth Brooks - The Night I Called The Old Man Out
TTITLE14=Mary Chapin Carpenter - Going Out Tonight
EXTD=Hot Country Hits - Vol III
EXTT0=
EXTT1=
EXTT2=
EXTT3=
EXTT4=
EXTT5=
EXTT6=
EXTT7=
EXTT8=
EXTT9=
EXTT10=
EXTT11=
EXTT12=
EXTT13=
EXTT14=
PLAYORDER=
